<?xml version="1.0" encoding="UTF-8"?>
<!DOCTYPE svg PUBLIC "-//W3C//DTD SVG 1.1//EN" "http://www.w3.org/Graphics/SVG/1.1/DTD/svg11.dtd">
<!-- Creator: CorelDRAW X7 -->
<svg xmlns="http://www.w3.org/2000/svg" xml:space="preserve" width="100px" height="100px" version="1.1" style="shape-rendering:geometricPrecision; text-rendering:geometricPrecision; image-rendering:optimizeQuality; fill-rule:evenodd; clip-rule:evenodd"
viewBox="0 0 1000 1000"
 xmlns:xlink="http://www.w3.org/1999/xlink">
 <defs>
  <style type="text/css">
   <![CDATA[
    .fil0 {fill:none}
    .fil1 {fill:white}
   ]]>
  </style>
 </defs>
 <g id="Layer_x0020_1">
  <metadata id="CorelCorpID_0Corel-Layer"/>
  <rect class="fil0" width="1000" height="1000"/>
  <path class="fil1" d="M62 185l876 0 0 626 -876 0 0 -626zm-32 -9l0 646c0,26 15,21 40,21l860 0c27,0 40,5 40,-23l0 -642c0,-34 -15,-25 -92,-25l-823 0c-21,0 -25,3 -25,23z"/>
  <path class="fil1" d="M502 523c-117,0 -233,0 -350,-1 -18,-26 -23,-58 -22,-82 7,-3 20,-2 29,-2l0 -32c-8,0 -21,2 -28,-2 7,-39 16,-60 41,-93l19 18 22 -23 -19 -21c41,-32 70,-48 109,-50l0 28 31 0 0 -30c30,0 82,9 113,42 -6,6 -14,13 -19,21l22 21c11,-5 12,-14 23,-20 23,18 52,82 49,109l-28 0 0 32 29 0c0,31 -10,63 -21,85zm54 -90c2,-146 -133,-260 -284,-225 -139,32 -217,194 -151,324 6,13 8,21 24,22 0,0 358,2 369,0 9,-3 4,-2 5,-4 24,-16 37,-87 37,-117z"/>
  <path class="fil1" d="M843 472l1 8 0 52 0 12 -1 192 -45 -1c-2,-23 -1,-50 -1,-74 0,-18 8,-59 -17,-57 -22,1 -15,39 -15,59 0,23 2,51 0,73l-34 0 0 -194c1,-31 2,-28 -10,-40 -20,2 -22,6 -22,27l1 17 -1 190 -67 0c-3,-25 -1,-58 -1,-83 0,-19 9,-65 -16,-64 -15,0 -16,12 -16,26l0 121 -35 -1c-1,-16 -1,-34 -1,-51 0,-16 3,-37 -17,-36 -24,2 -11,46 -15,88 -21,0 -50,-6 -46,21 9,16 31,11 51,11 20,0 40,0 60,0 31,0 286,3 296,-3 6,-4 18,-29 -16,-29l-1 -272c0,-13 -4,-26 -19,-22 -14,2 -12,16 -13,30z"/>
  <path class="fil1" d="M552 276l328 0c23,0 29,-32 -2,-32l-324 0c-13,0 -22,3 -22,16 0,12 9,16 20,16z"/>
  <path class="fil1" d="M609 297c-10,5 -15,19 -4,27 9,6 108,3 123,3 22,0 154,3 163,-2 9,-5 10,-19 2,-26 -8,-8 -106,-4 -121,-4 -21,0 -156,-2 -163,2z"/>
  <path class="fil1" d="M112 755c3,19 36,13 54,13l133 0c17,0 51,6 47,-19 -3,-20 -38,-13 -55,-13l-134 0c-19,0 -49,-6 -45,19z"/>
  <path class="fil1" d="M112 690c4,16 29,12 43,12 18,0 35,0 53,0 39,0 91,8 83,-22 -4,-14 -27,-10 -44,-10l-104 0c-16,0 -36,0 -31,20z"/>
  <path class="fil1" d="M316 443c2,-8 19,-22 25,-26 3,19 -6,27 -25,26zm-12 -14c-8,-15 6,-28 25,-24l-25 24zm37 -37c-18,-5 -30,-9 -44,5 -17,17 -10,27 -6,47 -36,26 -12,43 11,10 17,4 27,12 44,-3 15,-13 13,-26 7,-47 13,-16 54,-49 50,-57 -10,-18 -36,26 -62,45z"/>
  <path class="fil1" d="M844 532l0 -52c-7,3 -1,-1 -8,5l-15 19c2,5 5,9 10,14l13 14z"/>
 </g>
</svg>
