<?xml version="1.0" encoding="UTF-8"?>
<!DOCTYPE svg PUBLIC "-//W3C//DTD SVG 1.1//EN" "http://www.w3.org/Graphics/SVG/1.1/DTD/svg11.dtd">
<!-- Creator: CorelDRAW X7 -->
<svg xmlns="http://www.w3.org/2000/svg" xml:space="preserve" width="100px" height="100px" version="1.1" style="shape-rendering:geometricPrecision; text-rendering:geometricPrecision; image-rendering:optimizeQuality; fill-rule:evenodd; clip-rule:evenodd"
viewBox="0 0 1000 1000"
 xmlns:xlink="http://www.w3.org/1999/xlink">
 <defs>
  <style type="text/css">
   <![CDATA[
    .fil0 {fill:none}
    .fil1 {fill:white}
   ]]>
  </style>
 </defs>
 <g id="Layer_x0020_1">
  <metadata id="CorelCorpID_0Corel-Layer"/>
  <rect class="fil0" width="1000" height="1000"/>
  <g id="_1185466864">
   <path class="fil1" d="M257 209l-16 0c0,-29 -5,-74 47,-74l53 0 0 741c-38,0 -100,10 -100,-43l0 -31 16 0c6,0 13,16 33,9 31,-11 25,-56 -9,-56 -17,0 -15,11 -27,12 -3,0 -9,0 -13,0l0 -104c4,0 10,0 13,0 4,1 2,0 6,1 0,1 4,4 4,4 6,4 12,7 20,6 36,-4 34,-57 -3,-57 -9,0 -12,3 -18,7 -4,4 -5,4 -9,4 -3,0 -9,0 -13,0l0 -106c4,0 8,0 12,0 17,0 5,11 33,11 28,0 39,-55 -8,-55 -7,0 -11,5 -16,9 0,0 0,0 0,0 -6,4 -11,3 -21,3l0 -107c13,0 15,-2 22,4 23,19 47,-2 47,-20 0,-13 -11,-29 -24,-29 -29,0 -19,10 -29,10l-16 0 0 -103c6,0 14,-1 19,1 4,2 8,10 21,10 32,0 41,-43 11,-55 -21,-8 -29,8 -35,8zm-51 -38l0 38c-20,0 -53,-5 -53,17 0,25 26,19 53,19l0 103c-19,0 -41,-3 -48,5 -11,13 -1,30 11,30l37 0 0 107c-21,0 -53,-6 -53,16 0,21 32,16 53,16l0 106c-20,0 -53,-5 -53,16 0,25 26,19 53,19l0 104c-19,0 -41,-4 -48,5 -11,13 -1,30 11,30l37 0c0,33 -4,62 22,87 10,10 30,22 49,22l499 0c21,0 43,-14 53,-27 6,-7 12,-16 15,-25 5,-19 3,-171 3,-199 -13,7 -24,17 -36,24 0,40 0,80 0,120 0,21 2,39 -6,53 -7,11 -21,19 -41,19l-407 0 0 -741 407 0c18,0 29,6 38,16 10,11 9,26 9,46l0 325c6,-3 36,-22 36,-28l0 -322c0,-38 -37,-72 -71,-72l-499 0c-35,0 -71,36 -71,71z"/>
   <path class="fil1" d="M557 723c28,0 13,4 26,13 12,9 25,9 25,40 6,3 8,4 9,13 0,8 -3,11 -5,16 4,-1 15,-9 19,-12 42,-31 92,-64 133,-95l57 -40c6,-4 12,-8 18,-13l77 -54c-4,-40 -4,-29 -26,-61 -11,-17 -13,-11 -32,-21 -61,41 -129,93 -189,133l-94 67c-6,4 -15,9 -18,14z"/>
   <path class="fil1" d="M523 277c0,12 7,19 16,19l209 0c22,0 22,-35 0,-35l-209 0c-9,0 -16,7 -16,16z"/>
   <path class="fil1" d="M523 409c0,12 7,19 16,19l209 0c22,0 22,-35 0,-35l-209 0c-9,0 -16,7 -16,16z"/>
   <path class="fil1" d="M523 538c0,11 7,19 16,19l184 0c2,0 8,-4 10,-6 11,-13 -3,-29 -10,-29l-184 0c-9,0 -16,7 -16,16z"/>
   <path class="fil1" d="M446 407c-9,-5 -19,-22 -31,-22 -12,0 -14,10 -14,19 0,5 34,42 43,42 15,0 38,-30 47,-40 5,-4 13,-10 13,-18 0,-8 -9,-16 -16,-16 -12,0 -32,29 -42,35z"/>
   <path class="fil1" d="M444 539c-21,-31 -43,-30 -43,-4 0,5 33,42 45,42 9,0 26,-19 32,-26 7,-6 26,-24 26,-32 0,-9 -13,-26 -31,-7 -8,7 -21,22 -29,27z"/>
   <path class="fil1" d="M446 277c-11,-7 -18,-22 -31,-22 -9,0 -14,6 -14,16 0,10 14,18 19,25 25,31 33,21 58,-6 6,-8 26,-22 26,-32 0,-8 -8,-16 -15,-16 -14,0 -32,28 -43,35z"/>
   <path class="fil1" d="M500 815c0,4 4,11 7,11 6,0 62,-11 66,-13 -1,-22 -22,-50 -40,-55 -2,7 -33,56 -33,57z"/>
   <polygon class="fil1" points="557,723 555,723 557,725 "/>
  </g>
 </g>
</svg>
