<?xml version="1.0" encoding="UTF-8"?>
<!DOCTYPE svg PUBLIC "-//W3C//DTD SVG 1.1//EN" "http://www.w3.org/Graphics/SVG/1.1/DTD/svg11.dtd">
<!-- Creator: CorelDRAW X7 -->
<svg xmlns="http://www.w3.org/2000/svg" xml:space="preserve" width="100px" height="100px" version="1.1" style="shape-rendering:geometricPrecision; text-rendering:geometricPrecision; image-rendering:optimizeQuality; fill-rule:evenodd; clip-rule:evenodd"
viewBox="0 0 1000 1000"
 xmlns:xlink="http://www.w3.org/1999/xlink">
 <defs>
  <style type="text/css">
   <![CDATA[
    .fil0 {fill:none}
    .fil1 {fill:white}
   ]]>
  </style>
 </defs>
 <g id="Layer_x0020_1">
  <metadata id="CorelCorpID_0Corel-Layer"/>
  <rect class="fil0" width="1000" height="1000"/>
  <g id="_1029356448">
   <path class="fil1" d="M306 542c-6,2 -18,1 -22,-1 -19,-4 -32,-19 -37,-36 -1,-5 -3,-16 0,-20 -1,-9 6,-20 10,-25 20,-25 58,-21 70,-8 2,2 1,1 2,2 6,3 12,11 15,21 2,3 3,7 2,11 2,3 2,7 1,11 -2,22 -18,42 -41,45zm22 -441c-2,3 -38,19 -42,19 -1,2 0,0 -3,2 0,0 -3,2 -3,2l-43 19c-3,2 -15,8 -19,8 -3,4 -47,22 -50,23 -2,2 -17,8 -21,10 -6,3 -15,9 -21,9 -3,3 -7,4 -12,6 -13,7 -11,6 -25,9 -4,1 -8,4 -12,5 0,1 0,1 0,1l-8 8c-4,10 -9,13 -12,27 -4,16 -2,89 -2,108 1,123 -1,248 0,371 0,40 -3,31 8,66 3,2 8,13 15,18 7,5 19,6 22,9 7,1 18,7 25,10 6,3 20,8 23,12 5,0 41,17 44,19 6,2 9,4 14,6 5,2 9,4 12,7 7,0 34,16 43,18l36 17c2,1 4,1 7,3 1,0 1,0 3,1 1,1 1,1 2,2 3,0 40,17 42,19 12,4 9,7 24,4 7,-5 10,-5 15,-12 3,-3 5,-6 6,-9 2,-3 4,-8 5,-9 4,-19 5,-25 5,-46l0 -336c0,-128 1,-257 0,-384l0 -6c-1,-2 -5,-21 -9,-28 -4,-8 -10,-15 -17,-19 -20,-12 -28,5 -52,11z"/>
   <path class="fil1" d="M741 607l27 0 0 85c4,-1 47,-44 54,-51 3,-3 48,-50 53,-52 1,-2 0,-1 3,-2 2,-4 18,-19 21,-20 2,-4 0,-2 4,-4 0,-3 1,-3 4,-6 3,-3 11,-12 15,-13 1,-4 0,-2 3,-3 1,-3 7,-9 9,-11 3,-2 8,-8 11,-9 2,-4 0,-2 4,-4 1,-3 16,-17 18,-18 1,-2 1,-1 1,-4 -3,-2 -20,-18 -21,-22 -5,-2 -14,-12 -18,-16 -5,-5 -5,-4 -5,-7 -6,-1 -35,-33 -39,-37 -13,-12 -26,-24 -39,-37 -7,-8 -71,-72 -77,-76l-1 93c-8,2 -150,0 -172,0 -16,0 -42,-1 -57,1l0 212 202 1z"/>
   <path class="fil1" d="M479 797l1 69 10 0 21 0 25 0 21 0 24 0 21 0 25 0 21 0 25 -1c15,-4 22,-7 31,-17 4,-5 7,-8 11,-14 2,-5 5,-14 7,-17 4,-29 2,-59 2,-89 0,-15 0,-30 0,-45 0,-13 2,-34 0,-46l-5 0 -54 0 0 161 -186 -1z"/>
   <path class="fil1" d="M665 353l59 0 0 -121c0,-16 -3,-21 -6,-35 -2,-1 -8,-12 -10,-15 -3,-4 -11,-11 -13,-13 -6,-2 -11,-6 -19,-8 -13,-3 -171,-1 -188,-1l-8 -1 0 69 185 0c2,17 0,44 0,63 0,14 2,50 0,62z"/>
  </g>
 </g>
</svg>
