<?xml version="1.0" encoding="UTF-8"?>
<!DOCTYPE svg PUBLIC "-//W3C//DTD SVG 1.1//EN" "http://www.w3.org/Graphics/SVG/1.1/DTD/svg11.dtd">
<!-- Creator: CorelDRAW X7 -->
<svg xmlns="http://www.w3.org/2000/svg" xml:space="preserve" width="100px" height="100px" version="1.1" style="shape-rendering:geometricPrecision; text-rendering:geometricPrecision; image-rendering:optimizeQuality; fill-rule:evenodd; clip-rule:evenodd"
viewBox="0 0 1000 1000"
 xmlns:xlink="http://www.w3.org/1999/xlink">
 <defs>
  <style type="text/css">
   <![CDATA[
    .fil2 {fill:none}
    .fil1 {fill:#173E6D}
    .fil0 {fill:#F2A41E}
   ]]>
  </style>
 </defs>
 <g id="Layer_x0020_1">
  <metadata id="CorelCorpID_0Corel-Layer"/>
  <g id="_882656048">
   <path class="fil0" d="M518 389c67,-14 120,35 130,87 13,66 -33,121 -86,131 -145,27 -189,-186 -44,-218zm320 -134c-70,3 -87,4 -119,45 -26,-9 -20,-31 -59,0 -32,25 -20,19 -60,6 -13,-53 9,-71 -56,-71 -65,0 -56,6 -64,67 -57,51 -65,-53 -112,-4 -63,64 -48,45 -8,104l-12 36c-60,9 -72,-3 -72,59 0,64 7,52 70,60l15 34c-8,12 -30,37 -33,46 -8,22 15,38 25,48 49,49 44,21 93,-8 9,3 30,9 34,17 15,56 -11,67 61,67 61,0 51,-12 58,-71l36 -14c73,60 49,30 86,20 32,44 48,41 118,45 23,61 103,42 102,-15 0,-51 -63,-72 -94,-29 -8,10 -2,7 -12,15 -62,3 -69,-3 -98,-37 14,-29 29,-20 0,-58 -16,-20 -22,-21 -13,-42l9 -14c22,-25 65,20 70,-49l36 0c28,67 100,37 102,-12 3,-54 -69,-81 -102,-18l-33 2c-6,-16 0,-31 -22,-38 -16,-5 -37,-3 -52,-10 -18,-29 -15,-32 4,-56 34,-42 11,-32 1,-62 40,-31 24,-38 101,-34 35,70 102,32 103,-13 2,-52 -72,-84 -103,-16z"/>
   <path class="fil1" d="M326 858c29,0 43,-4 57,7 2,25 -10,20 -46,20 -16,0 -33,3 -35,-11 -3,-15 11,-16 24,-16zm-49 -748l99 0c7,0 12,5 12,12l0 0c0,7 -5,13 -12,13l-99 0c-7,0 -13,-6 -13,-13l0 0c0,-7 6,-12 13,-12zm143 4c26,-18 43,32 2,22 -4,-8 -5,-13 -2,-22zm-289 711c-4,-6 -2,1 -4,-8 0,-2 0,-9 0,-11l1 -635c16,-6 411,-7 430,0l1 36c65,1 58,47 65,65 2,-30 5,-127 -2,-151 -11,-40 -44,-57 -92,-57 -99,0 -199,1 -298,0 -42,0 -109,-7 -138,15 -38,29 -34,57 -34,116l0 600c0,52 -3,95 30,120 32,23 88,16 134,16 101,0 202,0 302,0 119,0 103,-83 99,-203 -21,41 4,50 -68,62l0 35 -426 0z"/>
   <rect class="fil1" x="488" y="487" width="21.7323" height="21.7323"/>
   <rect class="fil1" x="523" y="487" width="21.7323" height="21.7323"/>
   <rect class="fil1" x="558" y="487" width="21.7323" height="21.7323"/>
  </g>
  <rect class="fil2" width="1000" height="1000"/>
 </g>
</svg>
