<?xml version="1.0" encoding="UTF-8"?>
<!DOCTYPE svg PUBLIC "-//W3C//DTD SVG 1.1//EN" "http://www.w3.org/Graphics/SVG/1.1/DTD/svg11.dtd">
<!-- Creator: CorelDRAW X7 -->
<svg xmlns="http://www.w3.org/2000/svg" xml:space="preserve" width="100px" height="100px" version="1.1" style="shape-rendering:geometricPrecision; text-rendering:geometricPrecision; image-rendering:optimizeQuality; fill-rule:evenodd; clip-rule:evenodd"
viewBox="0 0 1000 1000"
 xmlns:xlink="http://www.w3.org/1999/xlink">
 <defs>
  <style type="text/css">
   <![CDATA[
    .fil2 {fill:none}
    .fil0 {fill:#173D6E}
    .fil1 {fill:#F2A41E}
   ]]>
  </style>
 </defs>
 <g id="Layer_x0020_1">
  <metadata id="CorelCorpID_0Corel-Layer"/>
  <g id="_1185452368">
   <path class="fil0" d="M524 555l-101 0c-23,0 -30,-40 6,-40l93 0c32,0 31,40 2,40zm-120 -126c0,-11 8,-20 19,-20l166 0c23,0 21,38 2,38l-170 0c-10,0 -17,-9 -17,-18zm-113 -70c0,58 -4,50 20,50 25,-1 42,17 42,38 0,16 1,27 -13,40 -14,14 -29,11 -49,11l0 25 20 0c55,0 56,90 2,90 -24,0 -22,-5 -22,22 0,7 12,5 20,5 11,0 15,1 22,5 25,14 27,54 7,73 -14,14 -29,12 -49,12 0,28 -5,86 32,86l356 0c14,0 27,-12 31,-22 6,-13 5,-29 5,-48 0,-35 0,-71 0,-106 -11,3 -30,53 -57,69 -6,3 -7,3 -13,5 -18,8 -92,49 -98,49 -4,0 -5,-3 -8,-5l21 -120c4,-18 11,-37 20,-51 4,-7 8,-14 13,-21l84 -129c9,-12 40,-57 40,-67 0,-22 1,-36 -28,-48 -14,-6 -39,-2 -59,-2 -30,0 -304,-1 -313,1 -12,3 -26,24 -26,38z"/>
   <path class="fil0" d="M592 620c4,1 14,7 18,10 8,5 50,33 55,35l96 -139c6,-9 11,-15 16,-24 6,-8 11,-16 16,-24 -26,-17 -53,-35 -79,-53 -5,8 -10,16 -15,24l-77 121c-5,9 -10,16 -15,24 -4,6 -13,20 -15,26z"/>
   <path class="fil1" d="M725 412c23,12 53,34 77,46 16,-10 25,-36 11,-49l-14 -12c-34,-28 -53,-24 -74,15z"/>
   <path class="fil1" d="M569 728c4,1 3,2 7,2 10,0 72,-45 79,-47l0 -3c-8,-2 -67,-42 -76,-44 0,10 -2,16 -3,24 -1,8 -2,16 -3,23 -3,15 -10,33 -4,45z"/>
   <path class="fil1" d="M251 680c0,17 2,33 29,33 16,0 53,4 53,-20 0,-10 1,-23 -9,-29 -3,-2 -73,-16 -73,16z"/>
   <path class="fil1" d="M251 568c0,9 0,15 6,21 10,11 32,7 56,7 26,0 29,-51 -2,-51 -27,0 -60,-6 -60,23z"/>
   <path class="fil1" d="M251 448c0,37 17,30 64,30 24,0 28,-51 -7,-51 -18,0 -57,-5 -57,21z"/>
  </g>
  <path class="fil1" d="M491 96l0 114c0,11 -3,29 10,29 13,1 10,-16 10,-26l0 -117c6,6 12,23 19,26 6,2 12,-1 13,-6 2,-7 -3,-12 -6,-17l-23 -42c-8,-14 -16,-16 -24,-1 -6,9 -31,51 -31,57 0,6 6,11 13,9 7,-2 13,-20 19,-26z"/>
  <path class="fil1" d="M70 523c1,-2 0,-1 2,-2l5 -4c8,-4 17,-8 19,-14 1,-7 -4,-12 -11,-12 -5,0 -37,20 -43,23 -8,5 -25,11 -22,22 2,7 45,29 54,34 23,14 24,-5 20,-11 -1,-2 -22,-14 -25,-15 19,-3 123,1 135,-1 11,-2 15,-20 -7,-20l-127 0z"/>
  <path class="fil1" d="M926 520c5,3 1,0 4,3l-118 0c-11,0 -27,-2 -25,11 1,13 19,9 31,9 25,0 97,-1 113,1 -4,1 -25,13 -26,16 -3,5 -3,24 21,10 9,-6 53,-27 54,-35 1,-11 -16,-17 -24,-21 -7,-5 -37,-24 -44,-23 -6,1 -10,7 -8,14 2,6 16,10 22,15z"/>
  <path class="fil1" d="M851 214c-4,8 -76,77 -93,94 -7,7 -4,11 1,17 9,5 22,-12 31,-20 12,-13 71,-73 76,-76 -1,8 -9,26 -5,33 2,4 8,6 14,3 6,-3 13,-37 15,-45 2,-8 10,-27 4,-33 -5,-6 -22,0 -30,3 -7,2 -44,10 -48,14 -4,5 -2,12 2,15 6,5 25,-3 33,-5z"/>
  <path class="fil1" d="M135 249c5,3 74,73 90,88 5,5 6,10 17,8 5,-5 8,-10 2,-16 -16,-18 -89,-86 -93,-95 8,2 25,9 32,5 5,-2 6,-9 3,-14 -3,-5 -9,-5 -15,-6 -9,-3 -21,-6 -31,-9 -37,-11 -40,-9 -29,28 3,11 6,21 9,32 1,5 2,11 6,14 5,4 12,2 14,-2 5,-6 -3,-25 -5,-33z"/>
  <rect class="fil2" width="1000" height="1000"/>
 </g>
</svg>
